<svg width="463" height="242" viewBox="0 0 463 242" xmlns="http://www.w3.org/2000/svg">
    <defs>
        <linearGradient x1="60.895%" y1="28.156%" x2="47.344%" y2="53.735%" id="a">
            <stop stop-color="#F9F9F9" offset="0%"/>
            <stop stop-color="#F8F8F8" offset="14.878%"/>
            <stop stop-color="#E7E7E7" offset="100%"/>
        </linearGradient>
    </defs>
    <g fill="none" fill-rule="evenodd">
        <path d="M419.962 207.909c-.41 5.642-3.834 11.154-9.927 16.342-5.614 4.864-13.42 9.469-23.073 13.749H34.101c-7.12-4.475-13.282-9.922-18.417-16.732a69.913 69.913 0 0 1-5.066-7.523C-33.336 138 71.14-6.88 106.262.254c16.157 3.243 6.572 36.317 33.136 52.4 50.184 30.35 146.238-50.52 174.582-26.2 15.13 13.035 19.642 44.467 29.09 82.924 16.02 65.37 79.083 67.467 76.892 98.53z" fill="url(#a)" opacity=".4" transform="translate(18.512)"/>
        <g transform="translate(360.999 122.518)">
            <path d="M13.601 108.959 32.636 5.428a6.626 6.626 0 0 1 13.034 0l19.035 103.531H13.601z" fill="#FFD165"/>
            <rect fill="#3A3A3A" y="108.417" width="78" height="7" rx="2"/>
            <path fill="#3A3A3A" d="M26.188 40.498h25.93l-2.482-13.499H28.67l-2.482 13.499"/>
        </g>
        <path d="M70 87h272a4 4 0 0 1 4 4v16a4 4 0 0 1-4 4H70a4 4 0 0 1-4-4V91a4 4 0 0 1 4-4z" fill="#FFDF7D"/>
        <path fill="#3A3A3A" d="m77.665 111 12.953-24H113.7l-12.953 24zM189.735 111l12.952-24h23.082l-12.952 24zM133.7 111l12.953-24h23.082l-12.953 24zM245.77 111l12.952-24h23.082l-12.953 24zM301.804 111l12.953-24h23.082l-12.953 24z"/>
        <path d="M462.157 239.914c0 .538-.282 1.017-.704 1.376-.422.358-1.055.538-1.759.538H2.462c-1.336 0-2.462-.837-2.462-1.914 0-.538.281-1.017.704-1.376.422-.359 1.055-.538 1.758-.538h457.232c1.337 0 2.463.837 2.463 1.914z" fill="#C4C4C4" opacity=".8"/>
        <path d="M96.856 238.008 85.453 238a2 2 0 0 1-1.98-2.279l17.633-125.23h15.986L98.837 236.296a2 2 0 0 1-1.98 1.713z" fill="#3A3A3A"/>
        <path d="M128.33 237.425h10.215a2 2 0 0 0 1.98-2.285L122.59 110.493h-14.168l17.928 125.215a2 2 0 0 0 1.98 1.717z" fill="#FFF"/>
        <path d="M299.856 238.008 288.453 238a2 2 0 0 1-1.98-2.279l17.633-125.23h15.986l-18.255 125.803a2 2 0 0 1-1.98 1.713z" fill="#3A3A3A"/>
        <path d="M331.33 237.425h10.215a2 2 0 0 0 1.98-2.285L325.59 110.493h-14.168l17.928 125.215a2 2 0 0 0 1.98 1.717z" fill="#FFF"/>
    </g>
</svg>
